<svg version="1.2" xmlns="http://www.w3.org/2000/svg" viewBox="0 0 16 16" width="16" height="16">
	<style>
		.s0 { fill: #ffffff } 
	</style>
	<path class="s0" d="m8 4.75c-0.86 0-1.69 0.35-2.3 0.95-0.6 0.61-0.95 1.44-0.95 2.3 0 0.86 0.35 1.69 0.95 2.3 0.61 0.6 1.44 0.95 2.3 0.95 0.86 0 1.69-0.35 2.3-0.95 0.6-0.61 0.95-1.44 0.95-2.3 0-0.86-0.35-1.69-0.95-2.3-0.61-0.6-1.44-0.95-2.3-0.95zm-2.25 3.25c0-0.6 0.24-1.17 0.66-1.59 0.42-0.42 0.99-0.66 1.59-0.66 0.6 0 1.17 0.24 1.59 0.66 0.42 0.42 0.66 0.99 0.66 1.59 0 0.6-0.24 1.17-0.66 1.59-0.42 0.42-0.99 0.66-1.59 0.66-0.6 0-1.17-0.24-1.59-0.66-0.42-0.42-0.66-0.99-0.66-1.59z"/>
	<path class="s0" d="m9.8 1.34c-0.53-1.79-3.07-1.79-3.6 0l-0.09 0.32q-0.06 0.19-0.19 0.34-0.13 0.15-0.31 0.22-0.19 0.08-0.38 0.07-0.2-0.01-0.38-0.11l-0.29-0.16c-1.64-0.89-3.43 0.9-2.54 2.54l0.16 0.29q0.1 0.18 0.11 0.38 0.01 0.19-0.07 0.38-0.07 0.18-0.22 0.31-0.15 0.13-0.34 0.19l-0.32 0.09c-1.79 0.53-1.79 3.07 0 3.6l0.32 0.09q0.19 0.06 0.34 0.19 0.15 0.13 0.22 0.31 0.08 0.19 0.07 0.38-0.01 0.2-0.11 0.37l-0.16 0.3c-0.89 1.64 0.9 3.43 2.54 2.54l0.29-0.16q0.18-0.1 0.38-0.11 0.19-0.01 0.38 0.07 0.18 0.07 0.31 0.22 0.13 0.15 0.19 0.34l0.09 0.32c0.53 1.79 3.07 1.79 3.6 0l0.09-0.32q0.06-0.19 0.19-0.34 0.13-0.15 0.31-0.22 0.19-0.08 0.38-0.07 0.2 0.01 0.37 0.11l0.3 0.16c1.64 0.89 3.43-0.9 2.54-2.54l-0.16-0.3q-0.1-0.17-0.11-0.37-0.01-0.19 0.07-0.38 0.07-0.18 0.22-0.31 0.15-0.13 0.34-0.19l0.32-0.09c1.79-0.53 1.79-3.07 0-3.6l-0.32-0.09q-0.19-0.06-0.34-0.19-0.15-0.13-0.22-0.31-0.08-0.19-0.07-0.38 0.01-0.2 0.11-0.38l0.16-0.29c0.89-1.64-0.9-3.43-2.54-2.54l-0.3 0.16q-0.17 0.1-0.37 0.11-0.19 0.01-0.38-0.07-0.18-0.07-0.31-0.22-0.13-0.15-0.19-0.34zm-2.63 0.29c0.24-0.84 1.42-0.84 1.67 0l0.09 0.31q0.13 0.41 0.41 0.73 0.28 0.31 0.68 0.47 0.39 0.17 0.81 0.14 0.42-0.02 0.8-0.22l0.29-0.16c0.76-0.42 1.6 0.42 1.18 1.18l-0.16 0.3q-0.2 0.37-0.22 0.79-0.02 0.43 0.14 0.82 0.16 0.39 0.48 0.67 0.31 0.29 0.72 0.41l0.32 0.09c0.83 0.25 0.83 1.43 0 1.68l-0.32 0.09q-0.41 0.12-0.72 0.4-0.32 0.29-0.48 0.68-0.16 0.39-0.14 0.82 0.02 0.42 0.22 0.79l0.16 0.29c0.42 0.77-0.42 1.6-1.18 1.19l-0.29-0.16q-0.38-0.2-0.8-0.23-0.42-0.02-0.82 0.14-0.39 0.17-0.67 0.48-0.28 0.32-0.41 0.72l-0.09 0.32c-0.25 0.84-1.43 0.84-1.67 0l-0.1-0.32q-0.12-0.4-0.4-0.72-0.29-0.31-0.68-0.48-0.39-0.16-0.81-0.14-0.43 0.03-0.8 0.23l-0.29 0.16c-0.77 0.41-1.6-0.42-1.19-1.19l0.16-0.29q0.21-0.37 0.23-0.79 0.02-0.43-0.14-0.82-0.16-0.39-0.48-0.68-0.31-0.28-0.72-0.4l-0.32-0.09c-0.83-0.25-0.83-1.43 0-1.68l0.32-0.09q0.41-0.12 0.72-0.41 0.32-0.28 0.48-0.67 0.16-0.39 0.14-0.82-0.02-0.42-0.23-0.79l-0.16-0.3c-0.41-0.76 0.42-1.6 1.19-1.18l0.29 0.16q0.37 0.2 0.8 0.22 0.42 0.03 0.81-0.14 0.39-0.16 0.68-0.47 0.28-0.32 0.4-0.73z"/>
</svg>