<svg version="1.2" xmlns="http://www.w3.org/2000/svg" viewBox="0 0 640 640" width="32" height="32">
	<style>
		.s0 { fill: #ffffff } 
	</style>
	<path class="s0" d="m224 160v128c0 53 43 96 96 96 53 0 96-43 96-96v-128c0-53-43-96-96-96-53 0-96 43-96 96zm96-48c26.5 0 48 21.5 48 48v128c0 26.5-21.5 48-48 48-26.5 0-48-21.5-48-48v-128c0-26.5 21.5-48 48-48zm-144 136c0-13.3-10.7-24-24-24-13.3 0-24 10.7-24 24v40c0 97.9 73.3 178.7 168 190.5v49.5h-48c-13.3 0-24 10.7-24 24 0 13.3 10.7 24 24 24h144c13.3 0 24-10.7 24-24 0-13.3-10.7-24-24-24h-48v-49.5c94.7-11.8 168-92.6 168-190.5v-40c0-13.3-10.7-24-24-24-13.3 0-24 10.7-24 24v40c0 79.5-64.5 144-144 144-79.5 0-144-64.5-144-144z"/>
</svg>